<svg xmlns="http://www.w3.org/2000/svg" viewBox="0 0 187 64">
  <title>
    franklin-logo
  </title>
  <g fill="none" fill-rule="evenodd" transform="translate(0 -1)">
    <g fill="#0BB671">
      <path d="M34.4475353,3.20000713 L34.4475353,17.7969544 C34.4475353,22.8082637 21.5201574,26.8707325 5.57342868,26.8707325 C4.29699704,26.8707325 3.03991026,26.8447044 1.80724952,26.794245 L1.80724952,12.1972978 C3.03991026,12.2477571 4.29699704,12.2737852 5.57342868,12.2737852 C21.3606901,12.2737852 34.1886858,8.2921595 34.443667,3.35005864 L34.4475353,3.20000713 Z" opacity=".3" transform="rotate(-170 18.127 15.035)"/>
      <path d="M33.8285997,2.56000364 L33.8285997,17.1569509 C33.8285997,22.1682602 20.8143558,26.230729 4.7604725,26.230729 C3.47546836,26.230729 2.20993893,26.2047011 0.968999475,26.1542421 L0.968999475,11.5572948 C2.20993893,11.6077538 3.47546836,11.6337817 4.7604725,11.6337817 C20.653817,11.6337817 33.5680108,7.65215601 33.8247054,2.71005516 L33.8285997,2.56000364 Z" opacity=".5" transform="rotate(-175 17.399 14.395)"/>
      <path d="M32.6400953,1.28000004 L32.6400953,15.7511116 C32.6400953,20.7192199 19.7127929,24.7466674 3.76615718,24.7466674 C2.48973299,24.7466674 1.23265355,24.7208637 1.24344979e-14,24.6708394 L-3.32178729e-13,10.1997278 C1.23265355,10.2497522 2.48973299,10.2755559 3.76615718,10.2755559 C19.5533265,10.2755559 32.3812473,6.32825454 32.636227,1.428758 L32.6400953,1.28000004 Z" transform="rotate(-180 16.32 13.013)"/>
      <g transform="translate(0 20.48)">
        <path d="M24.9469812,1.92010386 L24.9469812,16.6962446 C24.9469812,21.7690732 15.8216442,25.8814132 4.56497065,25.8814132 C3.66358092,25.8814132 2.77585769,25.8550442 1.9053921,25.8039245 L1.90574661,11.0278046 C2.77609871,11.0789106 3.66370329,11.1052725 4.56497065,11.1052725 C15.6860217,11.1052725 24.7267842,7.09142799 24.9430196,2.10303532 L24.9469812,1.92010386 Z" opacity=".3" transform="rotate(-170 13.426 13.9)"/>
        <path d="M23.7724627,1.28005244 L23.7724627,16.0561932 C23.7724627,21.1290218 14.7540635,25.2413618 3.62930421,25.2413618 C2.73881126,25.2413618 1.86181453,25.2150126 1.0018591,25.1639305 L1.0018591,10.3877897 C1.86181453,10.4388718 2.73881126,10.465221 3.62930421,10.465221 C14.6183957,10.465221 23.5521885,6.45257037 23.7684516,1.46520948 L23.7724627,1.28005244 Z" opacity=".5" transform="rotate(-175 12.387 13.26)"/>
        <path d="M23.0411808,0.640000019 L23.0411808,15.4711584 C23.0411808,20.5628751 13.9160056,24.6905271 2.65953142,24.6905271 C1.75815767,24.6905271 0.870450167,24.6640598 -1.49880108e-14,24.6127498 L0.000354504618,9.78161237 C0.870691188,9.83290869 1.75828003,9.85936871 2.65953142,9.85936871 C13.7803854,9.85936871 22.8209877,5.83057908 23.0372193,0.823612613 L23.0411808,0.640000019 Z" transform="rotate(-180 11.52 12.665)"/>
      </g>
      <g transform="translate(0 40.96)">
        <path d="M14.9925631,1.2800498 L14.9925631,15.961955 C14.9925631,21.0024313 9.83476393,25.0885447 3.47229624,25.0885447 C2.96283067,25.0885447 2.46108916,25.0623455 1.96910132,25.0115548 L1.96910132,10.3296496 C2.46108916,10.3804403 2.96283067,10.4066395 3.47229624,10.4066395 C9.73046118,10.4066395 14.8231312,6.45339893 14.9884221,1.52715884 L14.9925631,1.2800498 Z" opacity=".3" transform="rotate(-170 8.48 13.184)"/>
        <path d="M13.8843341,0.640024834 L13.8843341,15.32193 C13.8843341,20.3624064 8.78697796,24.4485198 2.49907056,24.4485198 C1.99548457,24.4485198 1.49953489,24.4223111 1.01322841,24.3715024 L1.01322841,9.68959722 C1.49953489,9.74040586 1.99548457,9.76661455 2.49907056,9.76661455 C8.6821795,9.76661455 13.7140915,5.8155699 13.8801043,0.891238848 L13.8843341,0.640024834 Z" opacity=".5" transform="rotate(-175 7.449 12.544)"/>
        <path d="M12.8014855,5.68434189e-14 L12.8014855,14.7365719 C12.8014855,19.7958159 7.73194373,23.8971436 1.47834698,23.8971436 C0.977576066,23.8971436 0.484397752,23.8708443 0.000807173065,23.81986 L0.000807173065,9.08328813 C0.484397752,9.13427248 0.977576066,9.1605717 1.47834698,9.1605717 C7.62771711,9.1605717 12.6321719,5.19481571 12.7972789,0.252149386 L12.8014855,5.68434189e-14 Z" transform="rotate(-180 6.4 11.949)"/>
      </g>
    </g>
    <path fill="#FFF" fill-rule="nonzero" d="M58.1508789,33.8486328 L50.3408203,33.8486328 L50.3408203,44 L45.3164062,44 L45.3164062,19.1171875 L59.0908203,19.1171875 L59.0908203,23.3041992 L50.3408203,23.3041992 L50.3408203,29.6787109 L58.1508789,29.6787109 L58.1508789,33.8486328 Z M69.4985352,34.9082031 L67.003418,34.9082031 L67.003418,44 L61.9790039,44 L61.9790039,19.1171875 L69.9941406,19.1171875 C72.5120569,19.1171875 74.4574313,19.7694433 75.8303223,21.0739746 C77.2032132,22.3785059 77.8896484,24.2327354 77.8896484,26.6367188 C77.8896484,29.9407717 76.6876748,32.2535741 74.2836914,33.5751953 L78.6416016,43.7607422 L78.6416016,44 L73.2412109,44 L69.4985352,34.9082031 Z M67.003418,30.7211914 L69.8574219,30.7211914 C70.8600311,30.7211914 71.6119767,30.3879428 72.1132812,29.7214355 C72.6145858,29.0549283 72.8652344,28.163417 72.8652344,27.046875 C72.8652344,24.5517453 71.891123,23.3041992 69.9428711,23.3041992 L67.003418,23.3041992 L67.003418,30.7211914 Z M93.2192383,38.9072266 L86.3662109,38.9072266 L85.0332031,44 L79.7182617,44 L87.4941406,19.1171875 L92.0913086,19.1171875 L99.918457,44 L94.5522461,44 L93.2192383,38.9072266 Z M87.4599609,34.7202148 L92.1083984,34.7202148 L89.7841797,25.8505859 L87.4599609,34.7202148 Z M119.640137,44 L114.615723,44 L107.26709,27.6791992 L107.26709,44 L102.242676,44 L102.242676,19.1171875 L107.26709,19.1171875 L114.632812,35.4550781 L114.632812,19.1171875 L119.640137,19.1171875 L119.640137,44 Z M130.680176,34.3955078 L128.697754,36.890625 L128.697754,44 L123.67334,44 L123.67334,19.1171875 L128.697754,19.1171875 L128.697754,29.9692383 L130.287109,27.2861328 L134.918457,19.1171875 L141.070801,19.1171875 L133.944336,30.0546875 L141.19043,44 L135.226074,44 L130.680176,34.3955078 Z M148.060547,39.8300781 L156.878906,39.8300781 L156.878906,44 L143.036133,44 L143.036133,19.1171875 L148.060547,19.1171875 L148.060547,39.8300781 Z M165.030762,44 L160.006348,44 L160.006348,19.1171875 L165.030762,19.1171875 L165.030762,44 Z M186.649414,44 L181.625,44 L174.276367,27.6791992 L174.276367,44 L169.251953,44 L169.251953,19.1171875 L174.276367,19.1171875 L181.64209,35.4550781 L181.64209,19.1171875 L186.649414,19.1171875 L186.649414,44 Z"/>
  </g>
</svg>
