<svg xmlns="http://www.w3.org/2000/svg" viewBox="0 0 202 99">
  <title>
    franklin-logo-tagline
  </title>
  <g fill="none" fill-rule="evenodd" transform="translate(0 -2)">
    <g fill="#0BB671">
      <path d="M53.8241467,5 L53.8241467,27.8077295 C53.8241467,35.6378999 33.6251194,41.9855072 8.70835642,41.9855072 C6.71397574,41.9855072 4.74982007,41.9448402 2.82382825,41.8660008 L2.82383243,19.0582715 C4.74982292,19.1371108 6.71397718,19.1777778 8.70835642,19.1777778 C33.3759517,19.1777778 53.4196944,12.9564878 53.8181025,5.23445548 L53.8241467,5 Z" opacity=".3" transform="rotate(-170 28.324 23.493)"/>
      <path d="M52.8570578,4 L52.8570578,26.8077295 C52.8570578,34.6378999 32.5223024,40.9855072 7.43811039,40.9855072 C5.43033564,40.9855072 3.45298877,40.9448405 1.51406188,40.8660017 L1.51406188,18.0582722 C3.45298877,18.137111 5.43033564,18.1777778 7.43811039,18.1777778 C32.2714605,18.1777778 52.4498877,11.9564878 52.8509729,4.23445548 L52.8570578,4 Z" opacity=".5" transform="rotate(-175 27.186 22.493)"/>
      <path d="M51.0000208,2 L51.0000208,24.6111111 C51.0000208,32.3737801 30.8011114,38.6666667 5.88449383,38.6666667 C3.89012479,38.6666667 1.92598058,38.6263502 -3.08642001e-14,38.5481905 L4.1832765e-06,15.9370795 C1.92598343,16.0152391 3.89012623,16.0555556 5.88449383,16.0555556 C30.5519452,16.0555556 50.5955708,9.88789743 50.9939766,2.23243431 L51.0000208,2 Z" transform="rotate(-180 25.5 20.333)"/>
      <g transform="translate(0 32)">
        <path d="M38.9778032,3 L38.9778032,26.0877193 C38.9778032,34.0140137 24.7194646,40.4395448 7.13091261,40.4395448 C5.72313599,40.4395448 4.33669371,40.3983809 2.97718926,40.3185784 L2.97718926,17.2308591 C4.33669371,17.3106616 5.72313599,17.3518255 7.13091261,17.3518255 C24.5435791,17.3518255 38.6923034,11.0541624 38.9735366,3.23733368 L38.9778032,3 Z" opacity=".3" transform="rotate(-170 20.977 21.72)"/>
        <path d="M37.1425965,2 L37.1425965,25.0877193 C37.1425965,33.0140137 23.0513481,39.4395448 5.66891224,39.4395448 C4.27762485,39.4395448 2.90742204,39.3983804 1.56384172,39.318577 L1.56384172,16.2308577 C2.90742204,16.3106611 4.27762485,16.3518255 5.66891224,16.3518255 C22.8775237,16.3518255 36.8604424,10.0541624 37.1383799,2.23733368 L37.1425965,2 Z" opacity=".5" transform="rotate(-175 19.353 20.72)"/>
        <path d="M35.999976,1 L35.999976,24.1736842 C35.999976,32.1294914 21.7418901,38.5789474 4.15364975,38.5789474 C2.74589808,38.5789474 1.35948037,38.5376302 -2.09166018e-13,38.4575305 L-1.16351373e-13,15.2838463 C1.35948037,15.363946 2.74589808,15.4052632 4.15364975,15.4052632 C21.5660077,15.4052632 35.7144813,9.08415133 35.9957095,1.23821737 L35.999976,1 Z" transform="rotate(-180 18 19.79)"/>
      </g>
      <g transform="translate(0 64)">
        <path d="M23.4249903,2 L23.4249903,24.9404762 C23.4249903,32.8162202 15.3659294,39.2007722 5.42457394,39.2007722 C4.62836583,39.2007722 3.84423168,39.1598186 3.07534473,39.0804252 L3.07615203,16.1400324 C3.84478054,16.219371 4.62864449,16.260296 5.42457394,16.260296 C15.2489723,16.260296 23.2351048,10.0250851 23.4216541,2.27734029 L23.4249903,2 Z" opacity=".3" transform="rotate(-170 13.25 20.6)"/>
        <path d="M21.6933833,1 L21.6933833,23.9404762 C21.6933833,31.8162202 13.7287646,38.2007722 3.90390959,38.2007722 C3.11725874,38.2007722 2.34253349,38.1598422 1.58286717,38.0804938 L1.58213969,15.1399416 C2.34203888,15.2193398 3.11700763,15.260296 3.90390959,15.260296 C13.611802,15.260296 21.5034859,9.02685232 21.6900073,1.28063431 L21.6933833,1 Z" opacity=".5" transform="rotate(-175 11.638 19.6)"/>
        <path d="M20.0012322,0 L20.0012322,23.0258929 C20.0012322,30.9309615 12.0800734,37.3392857 2.30882872,37.3392857 C1.52631453,37.3392857 0.755665588,37.2981869 1.67532654e-13,37.2185119 L0.000273809789,14.1926479 C0.755851747,14.272304 1.52640905,14.3133929 2.30882872,14.3133929 C11.963749,14.3133929 19.812371,8.05673953 19.9978746,0.281679221 L20.0012322,0 Z" transform="rotate(-180 10 18.67)"/>
      </g>
    </g>
    <path fill="#104E64" fill-rule="nonzero" d="M73.1508789,46.8486328 L65.3408203,46.8486328 L65.3408203,57 L60.3164062,57 L60.3164062,32.1171875 L74.0908203,32.1171875 L74.0908203,36.3041992 L65.3408203,36.3041992 L65.3408203,42.6787109 L73.1508789,42.6787109 L73.1508789,46.8486328 Z M84.4985352,47.9082031 L82.003418,47.9082031 L82.003418,57 L76.9790039,57 L76.9790039,32.1171875 L84.9941406,32.1171875 C87.5120569,32.1171875 89.4574313,32.7694433 90.8303223,34.0739746 C92.2032132,35.3785059 92.8896484,37.2327354 92.8896484,39.6367188 C92.8896484,42.9407717 91.6876748,45.2535741 89.2836914,46.5751953 L93.6416016,56.7607422 L93.6416016,57 L88.2412109,57 L84.4985352,47.9082031 Z M82.003418,43.7211914 L84.8574219,43.7211914 C85.8600311,43.7211914 86.6119767,43.3879428 87.1132812,42.7214355 C87.6145858,42.0549283 87.8652344,41.163417 87.8652344,40.046875 C87.8652344,37.5517453 86.891123,36.3041992 84.9428711,36.3041992 L82.003418,36.3041992 L82.003418,43.7211914 Z M108.219238,51.9072266 L101.366211,51.9072266 L100.033203,57 L94.7182617,57 L102.494141,32.1171875 L107.091309,32.1171875 L114.918457,57 L109.552246,57 L108.219238,51.9072266 Z M102.459961,47.7202148 L107.108398,47.7202148 L104.78418,38.8505859 L102.459961,47.7202148 Z M134.640137,57 L129.615723,57 L122.26709,40.6791992 L122.26709,57 L117.242676,57 L117.242676,32.1171875 L122.26709,32.1171875 L129.632812,48.4550781 L129.632812,32.1171875 L134.640137,32.1171875 L134.640137,57 Z M145.680176,47.3955078 L143.697754,49.890625 L143.697754,57 L138.67334,57 L138.67334,32.1171875 L143.697754,32.1171875 L143.697754,42.9692383 L145.287109,40.2861328 L149.918457,32.1171875 L156.070801,32.1171875 L148.944336,43.0546875 L156.19043,57 L150.226074,57 L145.680176,47.3955078 Z M163.060547,52.8300781 L171.878906,52.8300781 L171.878906,57 L158.036133,57 L158.036133,32.1171875 L163.060547,32.1171875 L163.060547,52.8300781 Z M180.030762,57 L175.006348,57 L175.006348,32.1171875 L180.030762,32.1171875 L180.030762,57 Z M201.649414,57 L196.625,57 L189.276367,40.6791992 L189.276367,57 L184.251953,57 L184.251953,32.1171875 L189.276367,32.1171875 L196.64209,48.4550781 L196.64209,32.1171875 L201.649414,32.1171875 L201.649414,57 Z"/>
    <path fill="#00B5AF" fill-rule="nonzero" d="M64.2281897,69.0604417 L63.9537109,68.9790039 C62.426034,68.5398741 61.3143101,68.0002473 60.6185059,67.3601074 C59.9227016,66.7199675 59.5748047,65.929855 59.5748047,64.9897461 C59.5748047,63.9259387 60.000012,63.0461461 60.8504395,62.3503418 C61.7008669,61.6545375 62.806406,61.3066406 64.1670898,61.3066406 C65.0948289,61.3066406 65.9220504,61.4860008 66.6487793,61.8447266 C67.3755082,62.2034523 67.9383281,62.698239 68.3372559,63.3291016 C68.7361836,63.9599641 68.9356445,64.6495731 68.9356445,65.3979492 L67.1451172,65.3979492 C67.1451172,64.5815389 66.8853542,63.9398624 66.3658203,63.4729004 C65.8462865,63.0059384 65.1133836,62.7724609 64.1670898,62.7724609 C63.2888302,62.7724609 62.6038599,62.965737 62.1121582,63.3522949 C61.6204565,63.7388528 61.3746094,64.2753872 61.3746094,64.9619141 C61.3746094,65.5123725 61.6080869,65.9777813 62.0750488,66.3581543 C62.5030973,66.7068295 63.2065798,67.0282159 64.1855145,67.3223213 L64.4593262,67.4018555 C65.5818904,67.7172867 66.4601368,68.0651836 67.0940918,68.4455566 C67.7280468,68.8259296 68.1980942,69.2696915 68.504248,69.7768555 C68.8104019,70.2840195 68.9634766,70.8808559 68.9634766,71.5673828 C68.9634766,72.6621148 68.536723,73.5388151 67.6832031,74.1975098 C66.8296832,74.8562045 65.6885814,75.1855469 64.2598633,75.1855469 C63.3321243,75.1855469 62.4662475,75.0077329 61.662207,74.6520996 C60.8581666,74.2964663 60.2381369,73.8094106 59.8020996,73.190918 C59.3660623,72.5724253 59.1480469,71.8704466 59.1480469,71.0849609 L60.9385742,71.0849609 C60.9385742,71.9013713 61.2400849,72.5461402 61.8431152,73.0192871 C62.4461456,73.492434 63.2517202,73.7290039 64.2598633,73.7290039 C65.1999721,73.7290039 65.9205053,73.5372741 66.4214844,73.1538086 C66.9224634,72.7703431 67.1729492,72.2477247 67.1729492,71.5859375 C67.1729492,70.9241503 66.9410179,70.4123553 66.4771484,70.0505371 C66.0489612,69.7165511 65.2993149,69.3865221 64.2281897,69.0604417 L64.2281897,69.0604417 Z M82.1787109,62.9580078 L77.8369141,62.9580078 L77.8369141,75 L76.0649414,75 L76.0649414,62.9580078 L71.7324219,62.9580078 L71.7324219,61.4921875 L82.1787109,61.4921875 L82.1787109,62.9580078 Z M92.5086914,71.4746094 L86.8495117,71.4746094 L85.5785156,75 L83.7416016,75 L88.8998047,61.4921875 L90.4583984,61.4921875 L95.6258789,75 L93.7982422,75 L92.5086914,71.4746094 Z M87.3875977,70.0087891 L91.9798828,70.0087891 L89.6791016,63.690918 L87.3875977,70.0087891 Z M108.878223,70.7138672 C108.71123,72.1425853 108.183973,73.2450319 107.296436,74.0212402 C106.408899,74.7974485 105.229141,75.1855469 103.757129,75.1855469 C102.161418,75.1855469 100.882703,74.6134497 99.9209473,73.4692383 C98.9591912,72.3250268 98.4783203,70.7942804 98.4783203,68.8769531 L98.4783203,67.578125 C98.4783203,66.3225849 98.7025205,65.218592 99.1509277,64.2661133 C99.5993349,63.3136346 100.234827,62.5822779 101.057422,62.0720215 C101.880017,61.561765 102.832482,61.3066406 103.914844,61.3066406 C105.349747,61.3066406 106.500126,61.7071086 107.366016,62.5080566 C108.231905,63.3090047 108.735969,64.4176361 108.878223,65.8339844 L107.087695,65.8339844 C106.933072,64.7578071 106.597545,63.978518 106.081104,63.4960938 C105.564662,63.0136695 104.842583,62.7724609 103.914844,62.7724609 C102.776817,62.7724609 101.884655,63.1930296 101.23833,64.0341797 C100.592005,64.8753297 100.268848,66.0720951 100.268848,67.6245117 L100.268848,68.9326172 C100.268848,70.3984448 100.574997,71.564286 101.187305,72.4301758 C101.799612,73.2960655 102.656212,73.7290039 103.757129,73.7290039 C104.746717,73.7290039 105.505906,73.5048037 106.034717,73.0563965 C106.563528,72.6079893 106.914517,71.827154 107.087695,70.7138672 L108.878223,70.7138672 Z M112.983105,76.159668 L111.508008,76.159668 L117.148633,61.4921875 L118.614453,61.4921875 L112.983105,76.159668 Z M132.72959,68.6821289 C132.72959,70.0057032 132.506936,71.160721 132.061621,72.1472168 C131.616306,73.1337126 130.985453,73.8867162 130.169043,74.40625 C129.352633,74.9257838 128.400168,75.1855469 127.311621,75.1855469 C126.247814,75.1855469 125.304627,74.9242376 124.482031,74.4016113 C123.659436,73.878985 123.020852,73.1337125 122.56626,72.1657715 C122.111668,71.1978304 121.87819,70.0768293 121.86582,68.8027344 L121.86582,67.8286133 C121.86582,66.5297787 122.091567,65.382492 122.543066,64.3867188 C122.994566,63.3909455 123.63315,62.6286648 124.458838,62.0998535 C125.284526,61.5710423 126.229259,61.3066406 127.293066,61.3066406 C128.375429,61.3066406 129.329439,61.5679499 130.155127,62.0905762 C130.980815,62.6132025 131.616306,63.3708446 132.061621,64.3635254 C132.506936,65.3562061 132.72959,66.5112239 132.72959,67.8286133 L132.72959,68.6821289 Z M130.957617,67.8100586 C130.957617,66.2081626 130.636006,64.9789268 129.992773,64.1223145 C129.349541,63.2657021 128.449648,62.8374023 127.293066,62.8374023 C126.16741,62.8374023 125.281432,63.2657021 124.635107,64.1223145 C123.988783,64.9789268 123.656348,66.1679611 123.637793,67.6894531 L123.637793,68.6821289 C123.637793,70.2345455 123.964043,71.454504 124.616553,72.342041 C125.269063,73.229578 126.16741,73.6733398 127.311621,73.6733398 C128.462017,73.6733398 129.352634,73.2543173 129.983496,72.4162598 C130.614359,71.5782022 130.939062,70.3767982 130.957617,68.8120117 L130.957617,67.8100586 Z M146.974609,73.2280273 C146.516925,73.8836296 145.878341,74.3737777 145.058838,74.6984863 C144.239335,75.023195 143.285324,75.1855469 142.196777,75.1855469 C141.09586,75.1855469 140.118657,74.9273301 139.265137,74.4108887 C138.411617,73.8944473 137.751386,73.1599983 137.284424,72.2075195 C136.817462,71.2550408 136.5778,70.1510479 136.56543,68.8955078 L136.56543,67.7172852 C136.56543,65.6824443 137.040116,64.1053116 137.989502,62.9858398 C138.938888,61.8663681 140.273266,61.3066406 141.992676,61.3066406 C143.402839,61.3066406 144.537756,61.6669072 145.397461,62.3874512 C146.257166,63.1079951 146.782877,64.130039 146.974609,65.4536133 L145.193359,65.4536133 C144.859373,63.6661694 143.795582,62.7724609 142.001953,62.7724609 C140.808262,62.7724609 139.90373,63.1914834 139.28833,64.029541 C138.67293,64.8675986 138.362142,66.0813723 138.355957,67.6708984 L138.355957,68.7749023 C138.355957,70.2902094 138.702308,71.4947058 139.39502,72.3884277 C140.087731,73.2821497 141.024734,73.7290039 142.206055,73.7290039 C142.874027,73.7290039 143.458494,73.6547859 143.959473,73.5063477 C144.460452,73.3579094 144.874836,73.1074236 145.202637,72.7548828 L145.202637,69.7211914 L142.076172,69.7211914 L142.076172,68.2739258 L146.974609,68.2739258 L146.974609,73.2280273 Z M161.479395,70.7138672 C161.312402,72.1425853 160.785144,73.2450319 159.897607,74.0212402 C159.01007,74.7974485 157.830313,75.1855469 156.358301,75.1855469 C154.76259,75.1855469 153.483875,74.6134497 152.522119,73.4692383 C151.560363,72.3250268 151.079492,70.7942804 151.079492,68.8769531 L151.079492,67.578125 C151.079492,66.3225849 151.303692,65.218592 151.7521,64.2661133 C152.200507,63.3136346 152.835998,62.5822779 153.658594,62.0720215 C154.481189,61.561765 155.433653,61.3066406 156.516016,61.3066406 C157.950919,61.3066406 159.101298,61.7071086 159.967188,62.5080566 C160.833077,63.3090047 161.337141,64.4176361 161.479395,65.8339844 L159.688867,65.8339844 C159.534244,64.7578071 159.198717,63.978518 158.682275,63.4960938 C158.165834,63.0136695 157.443755,62.7724609 156.516016,62.7724609 C155.377989,62.7724609 154.485827,63.1930296 153.839502,64.0341797 C153.193177,64.8753297 152.87002,66.0720951 152.87002,67.6245117 L152.87002,68.9326172 C152.87002,70.3984448 153.176169,71.564286 153.788477,72.4301758 C154.400784,73.2960655 155.257384,73.7290039 156.358301,73.7290039 C157.347889,73.7290039 158.107077,73.5048037 158.635889,73.0563965 C159.1647,72.6079893 159.515689,71.827154 159.688867,70.7138672 L161.479395,70.7138672 Z M179.272656,71.4746094 L173.613477,71.4746094 L172.34248,75 L170.505566,75 L175.66377,61.4921875 L177.222363,61.4921875 L182.389844,75 L180.562207,75 L179.272656,71.4746094 Z M174.151563,70.0087891 L178.743848,70.0087891 L176.443066,63.690918 L174.151563,70.0087891 Z M187.589453,69.7119141 L187.589453,75 L185.808203,75 L185.808203,61.4921875 L190.790137,61.4921875 C192.268334,61.4921875 193.426444,61.8694624 194.264502,62.6240234 C195.10256,63.3785845 195.521582,64.3774352 195.521582,65.6206055 C195.521582,66.9318099 195.111837,67.9414841 194.292334,68.6496582 C193.472831,69.3578323 192.299259,69.7119141 190.771582,69.7119141 L187.589453,69.7119141 Z M187.589453,68.2553711 L190.790137,68.2553711 C191.742615,68.2553711 192.472426,68.0311709 192.97959,67.5827637 C193.486754,67.1343565 193.740332,66.4864951 193.740332,65.6391602 C193.740332,64.8351197 193.486754,64.1918969 192.97959,63.7094727 C192.472426,63.2270484 191.776632,62.9765626 190.892188,62.9580078 L187.589453,62.9580078 L187.589453,68.2553711 Z M201.305664,75 L199.524414,75 L199.524414,61.4921875 L201.305664,61.4921875 L201.305664,75 Z"/>
  </g>
</svg>
