<svg xmlns="http://www.w3.org/2000/svg" viewBox="0 0 57 99">
  <title>
    franklin-mark
  </title>
  <g fill="#0BB671" fill-rule="evenodd" transform="translate(0 -2)">
    <path d="M53.8241467,5 L53.8241467,27.8077295 C53.8241467,35.6378999 33.6251194,41.9855072 8.70835642,41.9855072 C6.71397574,41.9855072 4.74982007,41.9448402 2.82382825,41.8660008 L2.82383243,19.0582715 C4.74982292,19.1371108 6.71397718,19.1777778 8.70835642,19.1777778 C33.3759517,19.1777778 53.4196944,12.9564878 53.8181025,5.23445548 L53.8241467,5 Z" opacity=".3" transform="rotate(-170 28.324 23.493)"/>
    <path d="M52.8570578,4 L52.8570578,26.8077295 C52.8570578,34.6378999 32.5223024,40.9855072 7.43811039,40.9855072 C5.43033564,40.9855072 3.45298877,40.9448405 1.51406188,40.8660017 L1.51406188,18.0582722 C3.45298877,18.137111 5.43033564,18.1777778 7.43811039,18.1777778 C32.2714605,18.1777778 52.4498877,11.9564878 52.8509729,4.23445548 L52.8570578,4 Z" opacity=".5" transform="rotate(-175 27.186 22.493)"/>
    <path d="M51.0000208,2 L51.0000208,24.6111111 C51.0000208,32.3737801 30.8011114,38.6666667 5.88449383,38.6666667 C3.89012479,38.6666667 1.92598058,38.6263502 -3.08642001e-14,38.5481905 L4.1832765e-06,15.9370795 C1.92598343,16.0152391 3.89012623,16.0555556 5.88449383,16.0555556 C30.5519452,16.0555556 50.5955708,9.88789743 50.9939766,2.23243431 L51.0000208,2 Z" transform="rotate(-180 25.5 20.333)"/>
    <g transform="translate(0 32)">
      <path d="M38.9778032,3 L38.9778032,26.0877193 C38.9778032,34.0140137 24.7194646,40.4395448 7.13091261,40.4395448 C5.72313599,40.4395448 4.33669371,40.3983809 2.97718926,40.3185784 L2.97718926,17.2308591 C4.33669371,17.3106616 5.72313599,17.3518255 7.13091261,17.3518255 C24.5435791,17.3518255 38.6923034,11.0541624 38.9735366,3.23733368 L38.9778032,3 Z" opacity=".3" transform="rotate(-170 20.977 21.72)"/>
      <path d="M37.1425965,2 L37.1425965,25.0877193 C37.1425965,33.0140137 23.0513481,39.4395448 5.66891224,39.4395448 C4.27762485,39.4395448 2.90742204,39.3983804 1.56384172,39.318577 L1.56384172,16.2308577 C2.90742204,16.3106611 4.27762485,16.3518255 5.66891224,16.3518255 C22.8775237,16.3518255 36.8604424,10.0541624 37.1383799,2.23733368 L37.1425965,2 Z" opacity=".5" transform="rotate(-175 19.353 20.72)"/>
      <path d="M35.999976,1 L35.999976,24.1736842 C35.999976,32.1294914 21.7418901,38.5789474 4.15364975,38.5789474 C2.74589808,38.5789474 1.35948037,38.5376302 -2.09166018e-13,38.4575305 L-1.16351373e-13,15.2838463 C1.35948037,15.363946 2.74589808,15.4052632 4.15364975,15.4052632 C21.5660077,15.4052632 35.7144813,9.08415133 35.9957095,1.23821737 L35.999976,1 Z" transform="rotate(-180 18 19.79)"/>
    </g>
    <g transform="translate(0 64)">
      <path d="M23.4249903,2 L23.4249903,24.9404762 C23.4249903,32.8162202 15.3659294,39.2007722 5.42457394,39.2007722 C4.62836583,39.2007722 3.84423168,39.1598186 3.07534473,39.0804252 L3.07615203,16.1400324 C3.84478054,16.219371 4.62864449,16.260296 5.42457394,16.260296 C15.2489723,16.260296 23.2351048,10.0250851 23.4216541,2.27734029 L23.4249903,2 Z" opacity=".3" transform="rotate(-170 13.25 20.6)"/>
      <path d="M21.6933833,1 L21.6933833,23.9404762 C21.6933833,31.8162202 13.7287646,38.2007722 3.90390959,38.2007722 C3.11725874,38.2007722 2.34253349,38.1598422 1.58286717,38.0804938 L1.58213969,15.1399416 C2.34203888,15.2193398 3.11700763,15.260296 3.90390959,15.260296 C13.611802,15.260296 21.5034859,9.02685232 21.6900073,1.28063431 L21.6933833,1 Z" opacity=".5" transform="rotate(-175 11.638 19.6)"/>
      <path d="M20.0012322,0 L20.0012322,23.0258929 C20.0012322,30.9309615 12.0800734,37.3392857 2.30882872,37.3392857 C1.52631453,37.3392857 0.755665588,37.2981869 1.67532654e-13,37.2185119 L0.000273809789,14.1926479 C0.755851747,14.272304 1.52640905,14.3133929 2.30882872,14.3133929 C11.963749,14.3133929 19.812371,8.05673953 19.9978746,0.281679221 L20.0012322,0 Z" transform="rotate(-180 10 18.67)"/>
    </g>
  </g>
</svg>
