<svg xmlns="http://www.w3.org/2000/svg" viewBox="0 0 279.86 68.09"><defs><style>.cls-1{fill:#fff}</style></defs><g id="Layer_2" data-name="Layer 2"><g id="Layer_1-2" data-name="Layer 1"><path class="cls-1" d="M37.66 47.39a10 10 0 00-6.4 2.3 12.91 12.91 0 00-2 2.1 8.3 8.3 0 01-3.4 2 6.92 6.92 0 01-4.9-.4c-2.2-1-3.3-3.2-5.4-4.5A10.4 10.4 0 003.46 50a10.29 10.29 0 006.8 18 10 10 0 006.4-2.3c.9-.7 1.4-1.6 2.3-2.4a7.82 7.82 0 013.5-1.8 6.55 6.55 0 015.1.8c2 1.1 3.1 3.2 5.1 4.3a10.41 10.41 0 0012.1-1.4 10.54 10.54 0 002.6-11.3 10.68 10.68 0 00-9.7-6.5"/><path d="M28.66 5.09a10.39 10.39 0 00-1.1 7.5 18.87 18.87 0 01.9 3.4 7.11 7.11 0 01-.6 3.8 8.24 8.24 0 01-4.1 3.7c-1 .4-2.2.4-3.3.8a9.41 9.41 0 00-3.1 1.7 10.42 10.42 0 00-3.3 11.7 10.32 10.32 0 0019.6-.8 11.37 11.37 0 00.3-3.7 27.92 27.92 0 00-1-3.9 8.14 8.14 0 011.1-5.9 6.61 6.61 0 012.4-2 9.18 9.18 0 013.2-1 10.06 10.06 0 005.7-3.5 10.38 10.38 0 00.8-12c-3.8-6.6-13.7-6.5-17.5.2m13.7 34a10.19 10.19 0 005.2 4.4 16.36 16.36 0 002.8.7 8.91 8.91 0 013.3 1.8 6.15 6.15 0 012.2 4.6 8.72 8.72 0 01-.7 3.9A10.25 10.25 0 0063 67.79a10.59 10.59 0 0010.9-4.9 10.18 10.18 0 00-6.9-15.2c-2.1-.4-4.4-1.3-5.5-3.3a7.66 7.66 0 01-.6-6.6 9.75 9.75 0 000-7.5 10.28 10.28 0 10-18.5 8.8" fill="#fff"/><path class="cls-1" d="M214.56 33.09h-6a.43.43 0 00-.4.4v-.1l-8.1 24.2c-.1.1-.2.2-.3.2h-.1c-.2 0-.3-.1-.3-.2l-8.1-24.2v.1a.43.43 0 00-.4-.4h-6a.43.43 0 00-.4.4v.1l.1.2 12.3 33.6c.1.2.2.3.4.2h4.6a.37.37 0 00.5-.2l12.3-33.6.1-.3v-.1c.24-.1 0-.3-.2-.3zm-68.1 5.3a.37.37 0 00.1-.3v-4.6a.43.43 0 00-.4-.4h-23.9a.43.43 0 00-.4.4v4.8a.43.43 0 00.4.4h16c.1 0 .3.1.3.2v.4l-17.5 23.2v.1c0 .1-.1.1-.1.2v4.7a.43.43 0 00.4.4h24.9a.43.43 0 00.4-.4v-5.2a.43.43 0 00-.4-.4h-17c-.1 0-.3-.1-.3-.2v-.4zm-47.2-5.7c-4.8 0-8.3 1.2-10.9 4.2-.1.1-.2.2-.2.3s.1-.1.1 0h-.1c-.1.2-.1.4.1.5l4.1 3.1.3.2c.2.1.4.1.5-.1 1.1-1.6 3-2.3 6.6-2.3 2.6 0 4.4.3 5.7 1.1a4.13 4.13 0 011.9 3.8v3.7a.35.35 0 01-.4.4h-9.8c-7.4 0-11.1 4.6-11.1 10.1 0 5.9 4.4 10.4 12.1 10.4 4.8 0 7-1.1 8.4-3.4.1-.1.2-.2.3-.2h.1a.35.35 0 01.4.4v2.4a.43.43 0 00.4.4h5.6a.43.43 0 00.4-.4V44c-.2-8.51-5.76-11.21-14.5-11.31zm7.9 23c0 2.8-.5 4.5-1.9 5.4s-3.4 1.1-6.4 1.1a8.73 8.73 0 01-5.4-1.4 4.08 4.08 0 01-1.7-3.4 4 4 0 011.6-3.4 8.1 8.1 0 014.8-1.2h8.5a.35.35 0 01.4.4l.1 2.5zm57.9-23c-4.8 0-8.3 1.2-10.9 4.2l-.3.3s.1-.1.1 0h-.1c-.1.2-.1.4.1.5l4.1 3.1.3.2c.2.1.4.1.5-.1 1.1-1.6 3-2.3 6.6-2.3 2.6 0 4.4.3 5.7 1.1a4.13 4.13 0 011.9 3.8v3.7a.35.35 0 01-.4.4h-9.8c-7.4 0-11.1 4.6-11.1 10.1 0 5.9 4.4 10.4 12.1 10.4 4.8 0 7-1.1 8.4-3.4.1-.1.2-.2.3-.2h.1a.35.35 0 01.4.4v2.4a.43.43 0 00.4.4h5.6a.43.43 0 00.4-.4V44c-.1-8.51-5.7-11.21-14.4-11.31zm8 23c0 2.8-.5 4.5-1.9 5.4s-3.4 1.1-6.4 1.1a8.73 8.73 0 01-5.4-1.4 4.08 4.08 0 01-1.7-3.4 4 4 0 011.6-3.4 8.1 8.1 0 014.8-1.2h8.5a.35.35 0 01.4.4v2.5zm59.5-23c-6.7 0-14.2 4.2-14.2 17.8 0 14.3 8.2 17.6 15.3 17.6a15.78 15.78 0 0011.7-4.8l.2-.2c.1-.2.1-.4-.1-.5l-4.1-3.5a.45.45 0 00-.5 0 11.63 11.63 0 01-7.5 3.1 8.29 8.29 0 01-8.8-9.1.35.35 0 01.4-.4h21.3a.43.43 0 00.4-.4v-5.1c.1-8.9-6.5-14.5-14.1-14.5zm7.7 14.8a.37.37 0 01-.3.1h-14.9a.35.35 0 01-.4-.4c.1-5.5 3.5-8.6 7.8-8.6s7.6 3.1 7.8 8.6a.19.19 0 010 .3zm25.1-14.8c-4.8 0-8.3 1.2-10.9 4.2l-.3.3s.1-.1.1 0h-.1c-.1.2-.1.4.1.5l4.1 3.1.3.2h.1c.2.1.4.1.5-.1 1.1-1.6 3-2.3 6.6-2.3 2.6 0 4.4.3 5.7 1.1a4.13 4.13 0 011.9 3.8v3.7a.35.35 0 01-.4.4h-9.8c-7.4 0-11.1 4.6-11.1 10.1 0 5.9 4.4 10.4 12.1 10.4 4.8 0 7-1.1 8.4-3.4.1-.1.2-.2.3-.2h.1a.35.35 0 01.4.4v2.4a.43.43 0 00.4.4h5.6a.43.43 0 00.4-.4V44c-.2-8.51-5.8-11.21-14.5-11.31zm8 23c0 2.8-.5 4.5-1.9 5.4s-3.4 1.1-6.4 1.1a8.73 8.73 0 01-5.4-1.4 4.08 4.08 0 01-1.7-3.4 4 4 0 011.6-3.4 8.1 8.1 0 014.8-1.2h8.5a.35.35 0 01.4.4v2.5z"/></g></g></svg>