<svg xmlns="http://www.w3.org/2000/svg" viewBox="0 0 202 99"><g fill="none" fill-rule="evenodd"><g fill="#0BB671"><path d="M0 35.277l3.96-22.461C5.32 5.105 26.316 2.36 50.854 6.688c1.964.346 3.891.727 5.774 1.14l-3.96 22.46c-1.883-.412-3.81-.793-5.775-1.14C22.6 24.866 1.78 27.513.047 35.049L0 35.276z" opacity=".3"/><path d="M0 36.678l1.989-22.72C2.67 6.156 23.482 1.605 48.47 3.791c2 .175 3.967.388 5.892.635l-1.988 22.721c-1.925-.247-3.891-.46-5.891-.635C21.743 24.349 1.1 28.788.027 36.445l-.026.233z" opacity=".5"/><path d="M0 36.666V14.055C0 6.292 20.199-.001 45.116-.001 47.11 0 49.074.04 51 .118v22.61c-1.926-.077-3.89-.118-5.884-.118-24.668 0-44.712 6.168-45.11 13.824L0 36.666z"/><path d="M-.001 67.03l4.01-22.737c1.376-7.806 16.533-11.658 33.854-8.604a70.92 70.92 0 014.07.84l-4.01 22.738a70.92 70.92 0 00-4.069-.84c-17.148-3.025-32.175.72-33.81 8.37L0 67.03z" opacity=".3"/><path d="M0 67.818l2.012-23c.69-7.896 15.288-13.069 32.605-11.554a69.27 69.27 0 014.078.479l-2.012 23a69.27 69.27 0 00-4.079-.479C15.461 54.764.983 59.82.024 67.582L0 67.818z" opacity=".5"/><path d="M0 68.58V45.406c0-7.955 14.258-14.405 31.846-14.405 1.408 0 2.795.041 4.154.121v23.174a70.655 70.655 0 00-4.154-.121c-17.412 0-31.56 6.32-31.842 14.167L0 68.58z"/><path d="M0 99.15l3.983-22.59c1.368-7.756 10.413-12.645 20.204-10.918.784.138 1.549.314 2.292.526L22.495 88.76a22.873 22.873 0 00-2.292-.526C10.528 86.527 1.58 91.28.051 98.878L0 99.151z" opacity=".3"/><path d="M0 99.253L2 76.4c.686-7.846 9.176-13.512 18.964-12.656.783.069 1.552.177 2.302.322l-2 22.854a22.343 22.343 0 00-2.302-.323C9.294 85.751.89 91.273.028 98.974L0 99.253z" opacity=".5"/><path d="M-.001 99.34V76.314c0-7.905 7.92-14.313 17.692-14.313.783 0 1.553.04 2.309.12v23.026a22.02 22.02 0 00-2.309-.12C8.036 85.027.188 91.283.002 99.058L0 99.34z"/></g><path fill="#FFF" fill-rule="nonzero" d="M73.15 44.849h-7.81V55h-5.024V30.117h13.775v4.187h-8.75v6.375h7.81v4.17zm11.349 1.06h-2.496V55H76.98V30.117h8.015c2.518 0 4.463.652 5.836 1.957 1.373 1.305 2.06 3.159 2.06 5.563 0 3.304-1.202 5.617-3.606 6.938l4.358 10.186V55h-5.4L84.5 45.908zm-2.496-4.188h2.854c1.003 0 1.755-.333 2.256-1 .502-.666.752-1.558.752-2.674 0-2.495-.974-3.743-2.922-3.743h-2.94v7.417zm26.216 8.186h-6.853L100.033 55h-5.315l7.776-24.883h4.597L114.918 55h-5.366l-1.333-5.093zm-5.759-4.187h4.648l-2.324-8.87-2.324 8.87zM134.64 55h-5.024l-7.349-16.32V55h-5.024V30.117h5.024l7.366 16.338V30.117h5.007V55zm11.04-9.604l-1.982 2.495V55h-5.025V30.117h5.025V40.97l1.59-2.683 4.63-8.169h6.153l-7.127 10.938L156.19 55h-5.964l-4.546-9.604zm17.38 5.434h8.819V55h-13.843V30.117h5.025V50.83zM180.03 55h-5.024V30.117h5.025V55zm21.62 0h-5.025l-7.349-16.32V55h-5.024V30.117h5.024l7.366 16.338V30.117h5.007V55z"/><path fill="#00B5AF" fill-rule="nonzero" d="M64.228 67.06l-.274-.081c-1.528-.44-2.64-.979-3.335-1.619-.696-.64-1.044-1.43-1.044-2.37 0-1.064.425-1.944 1.275-2.64.85-.695 1.956-1.043 3.317-1.043.928 0 1.755.179 2.482.538.727.358 1.29.853 1.688 1.484.4.631.599 1.32.599 2.069h-1.79c0-.816-.26-1.458-.78-1.925-.52-.467-1.253-.7-2.199-.7-.878 0-1.563.193-2.055.58-.492.386-.737.922-.737 1.609 0 .55.233 1.016.7 1.396.428.349 1.132.67 2.11.964l.274.08c1.123.315 2.001.663 2.635 1.044.634.38 1.104.824 1.41 1.33.306.508.46 1.105.46 1.791 0 1.095-.427 1.972-1.28 2.63-.854.66-1.995.989-3.424.989a6.35 6.35 0 01-2.598-.534c-.804-.356-1.424-.843-1.86-1.461a3.566 3.566 0 01-.654-2.106h1.79c0 .816.302 1.461.905 1.934.603.473 1.409.71 2.417.71.94 0 1.66-.192 2.161-.575.501-.384.752-.906.752-1.568s-.232-1.174-.696-1.535c-.428-.334-1.178-.664-2.249-.99zm17.95-6.102h-4.341V73h-1.772V60.958h-4.333v-1.466H82.18v1.466zm10.33 8.517H86.85L85.579 73h-1.837L88.9 59.492h1.558L95.626 73h-1.828l-1.29-3.525zm-5.12-1.466h4.592l-2.3-6.318-2.292 6.318zm21.49.705c-.167 1.429-.694 2.531-1.582 3.307-.887.776-2.067 1.165-3.539 1.165-1.596 0-2.874-.573-3.836-1.717-.962-1.144-1.443-2.675-1.443-4.592v-1.299c0-1.255.225-2.36.673-3.312.448-.952 1.084-1.684 1.906-2.194.823-.51 1.775-.765 2.858-.765 1.435 0 2.585.4 3.451 1.201.866.801 1.37 1.91 1.512 3.326h-1.79c-.155-1.076-.49-1.855-1.007-2.338-.516-.482-1.238-.724-2.166-.724-1.138 0-2.03.421-2.677 1.262-.646.841-.97 2.038-.97 3.59v1.309c0 1.465.307 2.631.92 3.497.612.866 1.468 1.299 2.57 1.299.989 0 1.748-.224 2.277-.673.529-.448.88-1.229 1.053-2.342h1.79zm4.105 5.446h-1.475l5.64-14.668h1.466l-5.63 14.668zm19.747-7.478c0 1.324-.223 2.479-.668 3.465-.446.987-1.077 1.74-1.893 2.26-.816.519-1.769.779-2.857.779-1.064 0-2.007-.262-2.83-.784-.823-.523-1.461-1.268-1.916-2.236-.454-.968-.688-2.09-.7-3.363v-.974c0-1.3.226-2.447.677-3.442.452-.996 1.09-1.758 1.916-2.287.826-.529 1.77-.793 2.834-.793 1.082 0 2.036.26 2.862.784.826.522 1.461 1.28 1.907 2.273.445.992.668 2.147.668 3.465v.853zm-1.772-.872c0-1.602-.322-2.831-.965-3.688-.643-.856-1.543-1.285-2.7-1.285-1.126 0-2.012.429-2.658 1.285-.646.857-.979 2.046-.997 3.567v.993c0 1.553.326 2.773.979 3.66.652.888 1.55 1.331 2.695 1.331 1.15 0 2.04-.419 2.671-1.257.631-.838.956-2.04.975-3.604V65.81zm16.017 5.418c-.458.656-1.097 1.146-1.916 1.47-.82.325-1.774.488-2.862.488-1.101 0-2.078-.259-2.932-.775-.853-.517-1.514-1.251-1.98-2.203-.468-.953-.707-2.057-.72-3.312v-1.179c0-2.035.475-3.612 1.425-4.731.949-1.12 2.283-1.68 4.003-1.68 1.41 0 2.545.36 3.404 1.081.86.721 1.386 1.743 1.578 3.067h-1.782c-.334-1.788-1.397-2.682-3.191-2.682-1.194 0-2.098.42-2.714 1.258-.615.838-.926 2.051-.932 3.64v1.105c0 1.515.346 2.72 1.039 3.613.693.894 1.63 1.341 2.811 1.341.668 0 1.252-.074 1.753-.223a2.71 2.71 0 001.244-.751V67.72h-3.127v-1.447h4.899v4.954zm14.504-2.514c-.167 1.429-.694 2.531-1.581 3.307-.888.776-2.068 1.165-3.54 1.165-1.595 0-2.874-.573-3.836-1.717-.962-1.144-1.443-2.675-1.443-4.592v-1.299c0-1.255.225-2.36.673-3.312.449-.952 1.084-1.684 1.907-2.194.822-.51 1.775-.765 2.857-.765 1.435 0 2.585.4 3.451 1.201.866.801 1.37 1.91 1.512 3.326h-1.79c-.155-1.076-.49-1.855-1.007-2.338-.516-.482-1.238-.724-2.166-.724-1.138 0-2.03.421-2.676 1.262-.647.841-.97 2.038-.97 3.59v1.309c0 1.465.306 2.631.918 3.497.613.866 1.47 1.299 2.57 1.299.99 0 1.75-.224 2.278-.673.529-.448.88-1.229 1.053-2.342h1.79zm17.794.76h-5.66L172.343 73h-1.837l5.158-13.508h1.558L182.39 73h-1.828l-1.29-3.525zm-5.121-1.465h4.592l-2.3-6.318-2.292 6.318zm13.437-.297V73h-1.78V59.492h4.981c1.478 0 2.636.377 3.475 1.132.838.755 1.257 1.753 1.257 2.997 0 1.31-.41 2.32-1.23 3.029-.82.708-1.993 1.062-3.52 1.062h-3.183zm0-1.457h3.201c.953 0 1.682-.224 2.19-.672.507-.449.76-1.097.76-1.944 0-.804-.253-1.447-.76-1.93-.508-.482-1.203-.732-2.088-.751h-3.303v5.297zM201.306 73h-1.782V59.492h1.782V73z"/></g></svg>